Follows an elite hit man as he teaches his trade to an apprentice who has a connection to one of his previous victims.

Director:
Simon West
Writers:
Richard Wenk (screenplay), Lewis John Carlino (screenplay), and 1 more credit »
Stars:
Jason Statham, Ben Foster and Donald Sutherland 


Media info:

General
Complete name                    : E:\torrent2\The.Mechanic.2011.BluRay-rip.mkv.1080p.AVC.DTS 5.1-ACB-Team\The.Mechanic.2011.BluRay-rip.mkv.1080p.AVC.DTS 5.1-ACB-Team.mkv
Format                           : Matroska
File size                        : 9.83 GiB
Duration                         : 1h 32mn
Overall bit rate                 : 15.2 Mbps
Movie name                       : movie
Encoded date                     : UTC 2011-05-06 05:26:44
Writing application              : mkvmerge v3.2.0 ('Beginnings') built on Feb 12 2010 16:46:17
Writing library                  : libebml v0.7.9 + libmatroska v0.8.1

Video
ID                               : 1
Format                           : AVC
Format/Info                      : Advanced Video Codec
Format profile                   : High@L4.1
Format settings, CABAC           : Yes
Format settings, ReFrames        : 3 frames
Format settings, GOP             : M=4, N=16
Muxing mode                      : Container profile=Unknown@0.0
Codec ID                         : V_MPEG4/ISO/AVC
Duration                         : 1h 32mn
Bit rate mode                    : Variable
Bit rate                         : 13.8 Mbps
Maximum bit rate                 : 35.0 Mbps
Width                            : 1 920 pixels
Height                           : 1 080 pixels
Display aspect ratio             : 16:9
Frame rate                       : 23.976 fps
Color space                      : YUV
Chroma subsampling               : 4:2:0
Bit depth                        : 8 bits
Scan type                        : Progressive
Bits/(Pixel*Frame)               : 0.278
Stream size                      : 8.65 GiB (88%)
Writing library                  : x264 core 115 r1937 aa21558
Encoding settings                : cabac=1 / ref=1 / deblock=1:0:0 / analyse=0x3:0x3 / me=dia / subme=1 / psy=1 / psy_rd=0.00:0.00 / mixed_ref=0 / me_range=16 / chroma_me=1 / trellis=0 / 8x8dct=1 / cqm=0 / deadzone=21,11 / fast_pskip=1 / chroma_qp_offset=0 / threads=3 / sliced_threads=0 / slices=4 / nr=0 / decimate=1 / interlaced=0 / bluray_compat=1 / constrained_intra=0 / bframes=3 / b_pyramid=1 / b_adapt=1 / b_bias=0 / direct=1 / weightb=1 / open_gop=0 / weightp=1 / keyint=24 / keyint_min=1 / scenecut=40 / intra_refresh=0 / rc_lookahead=0 / rc=abr / mbtree=0 / bitrate=13829 / ratetol=1.0 / qcomp=0.60 / qpmin=0 / qpmax=69 / qpstep=4 / vbv_maxrate=35000 / vbv_bufsize=30000 / nal_hrd=vbr / ip_ratio=1.10 / pb_ratio=1.10 / aq=1:1.00

Audio
ID                               : 2
Format                           : DTS
Format/Info                      : Digital Theater Systems
Codec ID                         : A_DTS
Duration                         : 1h 32mn
Bit rate mode                    : Constant
Bit rate                         : 1 510 Kbps
Channel(s)                       : 6 channels
Channel positions                : Front: L C R, Side: L R, LFE
Sampling rate                    : 48.0 KHz
Bit depth                        : 24 bits
Stream size                      : 1 001 MiB (10%)
Language                         : English

Text #1
ID                               : 3
Format                           : VobSub
Muxing mode                      : zlib
Codec ID                         : S_VOBSUB
Codec ID/Info                    : The same subtitle format used on DVDs
Language                         : English

Text #2
ID                               : 4
Format                           : VobSub
Muxing mode                      : zlib
Codec ID                         : S_VOBSUB
Codec ID/Info                    : The same subtitle format used on DVDs
Language                         : Spanish

Text #3
ID                               : 5
Format                           : UTF-8
Codec ID                         : S_TEXT/UTF8
Codec ID/Info                    : UTF-8 Plain Text
Language                         : Dutch

Menu
00:00:00.000                     : en:00:00:00.000
00:07:03.464                     : en:00:07:03.464
00:12:50.936                     : en:00:12:50.936
00:17:09.403                     : en:00:17:09.403
00:22:30.140                     : en:00:22:30.140
00:31:38.938                     : en:00:31:38.938
00:36:59.967                     : en:00:36:59.967
00:39:56.018                     : en:00:39:56.018
00:48:35.537                     : en:00:48:35.537
00:54:08.828                     : en:00:54:08.828
01:03:33.392                     : en:01:03:33.392
01:07:18.993                     : en:01:07:18.993
01:12:54.953                     : en:01:12:54.953
01:16:58.530                     : en:01:16:58.530
01:19:37.022                     : en:01:19:37.022
01:23:10.985                     : en:01:23:10.985

